<svg viewBox="0 0 24 25" xmlns="http://www.w3.org/2000/svg">
<path fill-rule="evenodd" clip-rule="evenodd" d="M15 12C17.7614 12 20 9.76142 20 7C20 4.23858 17.7614 2 15 2C12.2386 2 10 4.23858 10 7C10 9.76142 12.2386 12 15 12ZM15 14C18.866 14 22 10.866 22 7C22 3.13401 18.866 0 15 0C11.134 0 8 3.13401 8 7C8 10.866 11.134 14 15 14ZM15.5357 3.78569V3H13.9643V3.78569C12.8794 3.78569 12 4.66514 12 5.74997C12 6.83481 12.8794 7.71426 13.9643 7.71426H15.5357L15.6064 7.72062C15.7896 7.75386 15.9286 7.9143 15.9286 8.10712C15.9286 8.32413 15.7527 8.49997 15.5357 8.49997H12.3929V10.0714H13.9643V10.8571H15.5357V10.0714C16.6206 10.0714 17.5 9.19195 17.5 8.10712C17.5 7.02228 16.6206 6.14283 15.5357 6.14283H13.9643L13.8937 6.13654C13.7104 6.10323 13.5714 5.94287 13.5714 5.74997C13.5714 5.53304 13.7473 5.35712 13.9643 5.35712H17.1071V3.78569H15.5357ZM3.73066 11.5C4.24576 11.5 4.66333 11.9477 4.66333 12.5C6.18802 12.5 7.59063 13.0604 8.70178 13.9996L10.7257 14C11.9685 14 13.0852 14.5793 13.8537 15.4998L16.788 15.5C18.6461 15.5 20.2504 16.6653 21 18.3514C18.7944 21.4721 15.2229 23.5 11.192 23.5C8.58921 23.5 6.38855 22.8968 4.60654 21.8421C4.47744 22.2256 4.13394 22.5 3.73066 22.5H0.932665C0.417573 22.5 0 22.0523 0 21.5V12.5C0 11.9477 0.417573 11.5 0.932665 11.5H3.73066ZM4.66427 14.5L4.66333 19.522L4.70563 19.5545C6.37866 20.8149 8.56011 21.5 11.192 21.5C13.9937 21.5 16.6002 20.3444 18.4995 18.3706L18.6235 18.237L18.5123 18.1366C18.0795 17.7736 17.5487 17.5484 16.9792 17.507L16.788 17.5L14.8187 17.5001C14.8868 17.8217 14.9227 18.1564 14.9227 18.5V19.5H6.52866V17.5L12.8615 17.499L12.8294 17.4206C12.4745 16.627 11.7405 16.0653 10.879 16.0053L10.7257 16L7.99349 15.9999C7.14734 15.0745 5.96835 14.5003 4.66427 14.5ZM2.798 13.5H1.86533V20.5H2.798V13.5Z" />
</svg>