<svg viewBox="0 0 24 25" xmlns="http://www.w3.org/2000/svg">
<path fill-rule="evenodd" clip-rule="evenodd" d="M23.4 8.5C23.4 12.6421 20.0422 16 15.9 16C11.7579 16 8.40002 12.6421 8.40002 8.5C8.40002 4.35786 11.7579 1 15.9 1C20.0422 1 23.4 4.35786 23.4 8.5ZM16.7228 4.46152H15.0773V5.26921C14.5426 5.26793 14.0285 5.47111 13.6438 5.83568C13.2591 6.20024 13.0341 6.69754 13.0166 7.22217C12.999 7.7468 13.1903 8.25751 13.5498 8.64607C13.9093 9.03462 14.4088 9.27048 14.9424 9.30363L15.0773 9.30767H16.7228L16.7969 9.31413C16.8917 9.33099 16.9775 9.38001 17.0393 9.45264C17.1011 9.52527 17.1349 9.61689 17.1349 9.71152C17.1349 9.80614 17.1011 9.89777 17.0393 9.97039C16.9775 10.043 16.8917 10.092 16.7969 10.1089L16.7228 10.1154H13.4318V11.7307H15.0773V12.5384H16.7228V11.7307C17.2575 11.732 17.7717 11.5288 18.1564 11.1643C18.5411 10.7997 18.766 10.3024 18.7836 9.77779C18.8011 9.25316 18.6099 8.74244 18.2504 8.35389C17.8909 7.96533 17.3914 7.72948 16.8577 7.69632L16.7228 7.69229H15.0773L15.0033 7.68582C14.9084 7.66896 14.8226 7.61994 14.7608 7.54732C14.699 7.47469 14.6652 7.38307 14.6652 7.28844C14.6652 7.19381 14.699 7.10219 14.7608 7.02956C14.8226 6.95693 14.9084 6.90791 15.0033 6.89105L15.0773 6.88459H18.3683V5.26921H16.7228V4.46152ZM4.62407 22.2602C4.62407 22.7606 4.21844 23.1662 3.71805 23.1662H1.90602C1.40564 23.1662 1 22.7606 1 22.2602V14.106C1 13.6056 1.40564 13.2 1.90602 13.2H3.71805C4.21844 13.2 4.62407 13.6056 4.62407 14.106V22.2602ZM8.54714 15.4647L10.5132 15.465C12.7649 15.465 14.5903 17.2904 14.5903 19.5421H8.24723L8.24814 20.4481L15.4963 20.4474V19.5421C15.4963 18.5614 15.208 17.6367 14.6935 16.8233L17.3083 16.8241C19.1134 16.8241 20.6718 17.8798 21.4 19.4075C19.2574 22.2349 15.7879 24.0722 11.8722 24.0722C9.37044 24.0722 7.25113 23.5371 5.5298 22.6002L5.53103 14.1704C6.65952 14.332 7.69215 14.7907 8.54714 15.4647Z"/>
</svg>
