<svg viewBox="0 0 24 24" xmlns="http://www.w3.org/2000/svg">
  <path
    d="M14 14.752V16.8414C13.3744 16.6203 12.7013 16.5 12 16.5C8.68629 16.5 6 19.1863 6 22.5H4C4 18.0817 7.58172 14.5 12 14.5C12.6906 14.5 13.3608 14.5875 14 14.752ZM12 13.5C8.685 13.5 6 10.815 6 7.5C6 4.185 8.685 1.5 12 1.5C15.315 1.5 18 4.185 18 7.5C18 10.815 15.315 13.5 12 13.5ZM12 11.5C14.21 11.5 16 9.71 16 7.5C16 5.29 14.21 3.5 12 3.5C9.79 3.5 8 5.29 8 7.5C8 9.71 9.79 11.5 12 11.5ZM19 18.0858L21.1213 15.9645L22.5355 17.3787L20.4142 19.5L22.5355 21.6213L21.1213 23.0355L19 20.9142L16.8787 23.0355L15.4645 21.6213L17.5858 19.5L15.4645 17.3787L16.8787 15.9645L19 18.0858Z" />
</svg>